<?xml version="1.0" encoding="utf-8"?>
<!-- Generator: Adobe Illustrator 25.0.1, SVG Export Plug-In . SVG Version: 6.00 Build 0)  -->
<svg version="1.1" id="Layer_1" xmlns="http://www.w3.org/2000/svg" xmlns:xlink="http://www.w3.org/1999/xlink" x="0px" y="0px"
	 viewBox="0 0 500 500" style="enable-background:new 0 0 500 500;" xml:space="preserve">
<style type="text/css">
	.st0{fill:#75C1BB;}
	.st1{fill:#EDA443;}
	.st2{fill:#B2CEBE;}
	.st3{fill:#AAB584;}
	.st4{fill:#E3D7C7;}
	.st5{fill:#F5DACA;}
	.st6{fill:#F3D0BD;}
	.st7{fill:#F3D3BB;}
	.st8{fill:#E2E0CD;}
	.st9{fill:#F0C5AD;}
	.st10{fill:#F2CCB4;}
	.st11{fill:#F3D5C4;}
	.st12{fill:#E0E0CB;}
	.st13{fill:#60A59F;}
	.st14{fill:#EBE2D4;}
	.st15{fill:#D8DACC;}
	.st16{fill:#F0F4ED;}
	.st17{fill:#CE4751;}
	.st18{fill:#D04D52;}
	.st19{fill:#D76351;}
	.st20{fill:#5FA59F;}
	.st21{fill:#6BACA6;}
	.st22{fill:#8C6378;}
	.st23{fill:#EEF2ED;}
	.st24{fill:#ECEDE4;}
	.st25{fill:#FDFCF8;}
	.st26{fill:#FCF7F3;}
	.st27{fill:#5D2F6A;}
	.st28{fill:#62336A;}
	.st29{fill:#63A6A1;}
	.st30{fill:#ECC174;}
	.st31{fill:#5BA49F;}
	.st32{fill:#EDD0CD;}
	.st33{fill:#B68B6F;}
	.st34{fill:#EECEC5;}
	.st35{fill:#F2E3DE;}
	.st36{fill:#DA6A4B;}
	.st37{fill:#DF7746;}
	.st38{fill:#DD7247;}
	.st39{fill:#DB6F46;}
	.st40{fill:#DD7348;}
	.st41{fill:#DF7846;}
	.st42{fill:#DE7547;}
	.st43{fill:#D96849;}
	.st44{fill:#DA6B48;}
	.st45{fill:#DD7346;}
	.st46{fill:#DA6A48;}
	.st47{fill:#DB6C48;}
	.st48{fill:#DD7446;}
	.st49{fill:#DC7046;}
	.st50{fill:#DB6B48;}
	.st51{fill:#DF7946;}
	.st52{fill:#DF7847;}
	.st53{fill:#DC7148;}
	.st54{fill:#DB6D48;}
	.st55{fill:#DA6B47;}
	.st56{fill:#DD7347;}
	.st57{fill:#DE7447;}
	.st58{fill:#E07A46;}
	.st59{fill:#DC7048;}
	.st60{fill:#DB6E47;}
	.st61{fill:#DE7647;}
	.st62{fill:#DE7448;}
	.st63{fill:#EBB3A4;}
	.st64{fill:#F5CB75;}
	.st65{fill:#D6996B;}
	.st66{fill:#DE7846;}
	.st67{fill:#C98C6A;}
	.st68{fill:#E07B47;}
	.st69{fill:#CA9F71;}
	.st70{fill:#A78BA3;}
	.st71{fill:#7D557C;}
	.st72{fill:#A38BAC;}
	.st73{fill:#F3C17D;}
	.st74{fill:#5D306A;}
	.st75{fill:#895D72;}
	.st76{fill:#F0AF58;}
</style>
<g>
	<path class="st0" d="M257,4.2c91,4.5,167.2,46.7,213.1,136.4c22.8,44.5,29,92.7,20,142.8c-9.3,52-33.5,95.6-71.2,131.5
		c-29.4,28-64.2,47.1-103.8,57.4c-75.5,19.6-145.5,8.4-209.2-36.8C46,392.9,11.3,335.1,6.4,260.6C0.3,169.2,37.4,98.8,111,46.9
		C152.4,17.7,199.1,5.5,257,4.2z"/>
	<path class="st1" d="M470.2,264.7c-5.1,17.5-7.2,35.5-13.9,52.8c-13.5,34.7-33.9,63.9-61.7,87.7c-44.9,38.5-97.8,56.9-156.2,53
		c-88.9-6-154.6-49.9-192.4-131.9C26.8,284.8,23,241.2,34.1,196.4c2.6-10.6,3.6-21.6,11.2-30.3c3.3-0.8,6.2,0.3,9.1,1.7
		c7.8,5.4,17.1,1.2,25.4,3.9c26.2,6.4,26.3,6.4,16.6,32.7c-1.5,4.2-3.2,8.4-4.2,12.8c-6,18.7-5,37.4-0.4,56.1
		c10.5,58.9,46,94.8,101.9,111.9c19.1,6.3,38.5,8.7,58.4,5.3c1.2-0.4,2.4-0.7,3.7-0.8c9-1,18-2.3,26.8-4.5c2.2-1.1,4.4-2.2,6.8-2.7
		c51.7-11.6,91.9-37.2,110.7-89.9c5.2-14.6,9.9-29.3,14.6-44c3.5-10.9,8.4-13.4,19-8.5c7,3.2,13.4,7.5,20.7,10.1
		c3.2,1.1,6.3,1.6,9.3-0.4c3.2-1.8,6.8-4,7.1,2.3C471.1,256.2,471.8,260.5,470.2,264.7z"/>
	<path class="st1" d="M62.1,131c17.3-31.1,42.7-54,72.6-72c36.7-22.1,76.9-32.7,119.5-31.3C323.6,30,380.9,58,424.7,112.8
		c2.8,3.5,5.6,7,8.4,10.5c15.2,21.9,25.5,46.1,32.5,71.6c1.7,6.1,0.7,12.8,1.3,19.2c-0.4,1.2-1.2,2.2-2.2,2.9
		c-14.9-3.9-28.4-11.3-42.5-17.2c-7.9-3.3-7.8-10.9-0.8-16.4c0.6-0.5,1.4-0.8,2-1.4c3.9-3.7,13-2,12.5-9.6
		c-0.5-7.7-3.8-15.1-11.7-18.8c-5.8-3.6-11.6-2.5-17.3,0.2c-16.3,7.7-31.4,4.1-43.3-8c-9.7-9.9-19.3-9.2-30.5-5.6
		c-1,0.7-2.1,1.4-3.2,2c-13.6,5.3-26.9,11-40,17.5c-13.4,6.6-28.1,2.8-41.2-1.4c-12.5-4.1-24.5-7.9-37.7-7.1
		c-7.7,0.5-15.2-0.6-22.8-2.3c-6.5-1.4-11.7-4.2-13.8-10.5c-2.4-7.4-6.9-7.6-12-4.3c-16.8,11-34.1,5.1-51.5,2.3
		c-14.9-2.4-29.8-6.5-45.2-4.1C64.4,132.3,63.2,131.8,62.1,131z"/>
	<path class="st2" d="M470.2,264.7c-0.2-3.9,0.2-7.9-0.6-11.7c-1.1-5.3-2.8,0.3-4.3,0.1c-0.6-0.1-1.1-0.3-1.7-0.4
		c-6.6-2.4-15.6-1.5-16.3-12c0.8-0.9,1.8-1.5,3-1.8c11.9-2.4,12.1-3,5.8-13.9c-1-1.7-1.9-3.4-1.7-5.5c0.7-1.6,2-2.3,3.6-2.6
		c2.3-0.4,4.7,1.6,7-0.2l0-0.8c3.1-1,4.6,1.6,6.7,2.9C471.8,234.1,474.4,249.5,470.2,264.7z"/>
	<path class="st3" d="M471.8,218.7c-2.2-1-4.5-1.9-6.7-2.9c-0.3-28-11-52.6-24.3-76.5c-2.9-5.2-8.1-9.3-7.8-16.1
		c12,11.3,17.4,26.6,24.3,41C465.7,181.4,466.2,200.8,471.8,218.7z"/>
	<path class="st4" d="M62.1,131c0.9,0.1,1.8,0.2,2.7,0.2c1.7,2.8,0.9,5.5,0,8.3c-2.9,9.5-11.6,16.7-10.6,27.7
		c-0.3,1.1-0.8,2.1-1.8,2.8c-2.4-1.3-4.8-2.7-7.2-4.1C47.2,152.6,55.3,142.1,62.1,131z"/>
	<path class="st5" d="M465.4,253.1c-7.1,6.2-13.1,0.5-18.8-2.4C420.2,237,420.9,237,413,266.6c-8.2,30.9-20.2,60.3-44.7,82.1
		c-22.6,20-49,32.4-79,36.7c-2.2-1.3-6.3-0.9-5.2-5.4c1.8-2.5,4.7-3.4,7.2-4.8c4.8-2,9.7-3.6,14.7-5.1c7.6,0.1,14.1-2.8,19.8-7.8
		c13.7-9.4,28.6-16.9,39.9-29.8c15.2-17.3,24.1-37.5,30.9-59.1c4.7-13.5,9.8-26.8,11.2-41.1c0.4-3.8,1.6-7.2,5-9.3
		c1.2-0.5,2.5-0.4,3.6,0.2c5.3,6.6-1.4,12.1-1.6,18c-0.7,1.7,1.9,0.1,0.3,0.1c-0.5,0-0.4-0.3-0.1-1.2c3.9-9.9,11.1-7.7,17.9-4.4
		c10.8,5.2,19.8,13.7,31.7,17.1L465.4,253.1z"/>
	<path class="st6" d="M284.5,380.7c1.6,1.6,3.2,3.2,4.8,4.8c-1.5,0.9-2.9,1.8-4.4,2.6c-9.8,2.2-20.3-0.3-29.7,4.8l0,0
		c-15.9,1.2-31.9,3.9-47.3-2.7c-5.3-2.3-11.3,0.4-16.5-2.1c-49.1-14-82.8-44.1-98.4-93.8c-2-6.2-4.5-12-4-18.6
		c-1.8-4.9-1.1-10.1-1.4-15.1c-0.3-6,3.2-6.4,7.4-2.9c3.1,3.5,4.2,7.8,5,12.3c7.4,42.9,29.2,75.4,68.3,95.3c1.8,0.9,3.5,2,5.2,3.2
		c8.5,8,20.2,7.9,30.2,12.1c20,4.2,40,5,59.9-0.1c1.9-0.6,3.8-0.8,5.8-0.9C274.4,380.1,279.7,377.9,284.5,380.7z"/>
	<path class="st7" d="M88.9,215.8c-0.6-8.5,4.5-15.3,7.5-22.5c5.4-13.2,5-14.7-9.3-16.4c-2.7-0.3-5.4-1.2-8.1-1.9
		c12.2-7.4,23-4.3,33.2,4.3c0.8,1.4,1.8,3.2,1.2,4.6c-6.2,15.6-9.3,32.5-18.9,46.8c-3.5,1.5-6.5,1.3-6.5-3.2
		C87.9,223.5,87.4,219.5,88.9,215.8z"/>
	<path class="st8" d="M111.9,179.8c-10.9-2-21.2-8.2-32.9-4.9c-8.9-1.2-18.8,3.2-26.5-4.8c0.1-0.9,0.1-1.7,0.2-2.6
		c2.5-3.6,3.2-9.3,9.6-8.6c13.2,3.7,26.4,6.8,40.3,6.8c5.2,0,10.5,0.5,14.2,5.2C118.6,175.8,117.4,179,111.9,179.8z"/>
	<path class="st9" d="M88.9,215.8c3.4,3.6-5.7,12.6,5.5,12.9c6.4,10.6,6.5,21.2-0.1,31.7c-1.8-0.4-4.6-5.6-5,0.9
		c-0.3,4.8-0.3,9.6-0.4,14.3C82.9,255.7,81.1,235.7,88.9,215.8z"/>
	<path class="st10" d="M191.4,388.1c21.4-0.2,42.2,7.9,63.8,4.8c-15.1,3.9-30.5,3.7-45.3-0.1C203.8,391.2,197,391.9,191.4,388.1z"/>
	<path class="st10" d="M255.2,393c8.8-8.6,19.7-3.8,29.7-4.8C275.1,390.4,265.4,392.9,255.2,393z"/>
	<path class="st11" d="M62.6,138.2c0.7-2.3,1.5-4.6,2.2-7c4.2-4.9,9-5.1,15.3-3.8c15.8,3.3,32,4.9,47.7,8.3
		c13.1,2.8,24.9,1,35.9-6.4c7.9-5.3,12.3-2.2,13.7,6.1c1.1,7,5.1,9.3,11.5,10.2c9.7,1.4,19.4,2.7,29.1,2c7.9-0.6,15.9,0,22.5,3.9
		c11.9,7,25.2,5.1,37.7,7.8c2.5,0.5,6-0.1,8.1-1.6c13.5-9.3,29-14.2,44.1-20.1c6.7,3.4,14.1,0,18.2,1.2c-4-0.7-11.3,1.9-18-1.3
		c12.5-6.9,23.6-4.7,33.7,4.6c11.9,10.9,25.6,16.3,41.7,8.4c6.7-3.3,13.5-5.3,20.4-0.6c-2.7,4.3-7.8,3.3-11.5,5.4
		c-8.2,3.1-16.8,3.9-24.5,5.8c1.4,0.8,4.4-1.1,6.5,0.9c0.8,5.4-3.5,5.7-6.8,7c-13.6-0.7-24.6-8.3-34.6-15.8
		c-7.9-6-14.1-5.3-22.2-2.8c-16.2,5-30.9,13.3-46,20.6c-6.2-2.3-12.1-5.6-18.8-6.1c-12.3-0.3-23.8-5.2-35.9-6.7
		c-13.8-2.5-27.8-4.1-41.8-4.4c-7.2-0.2-13.6-1.5-18.4-7.3c-3.5-1.9,1.9-11.7-7.4-8.5c-3.8,2-7.1,4.8-10.4,7.5
		c-1,0.7-2.1,1.1-3.3,1.3c-1.2,0.1-2.4,0-3.6-0.3c-4.7-0.8-9.1-3.1-14.1-2.7c-10.9,0.8-21.6-0.3-31.5-5.4
		C88.8,134.9,75.7,135.9,62.6,138.2z"/>
	<path class="st12" d="M413.7,152.5c3.6-3.7,8.4-1.8,12.6-2.5c5.9,2.9,8.6,8.4,11.1,14c3.8,8.5,4.3,15.9-7.3,18.6
		c-2.3,0.5-4.4,2.1-6.6,3c-2.7,1.1-5.3,2.1-5.1,5.8c0.2,3.5,2.7,4.5,5.4,5.7c13.8,6.4,29.3,9.4,41.3,19.6c-0.8,2.9-1.7,5.6-5,2.1
		c-17.8-4.1-33.9-12.5-50.6-19.6c-3.5-3-5.5-6.7-5.4-11.5c1-6.3,6-7.9,11-9.8c4.8-1.9,11.1-3.3,11.7-9.1c0.7-6.6-6.9-6.8-10.8-9.9
		C414.1,157.2,413.4,155,413.7,152.5z"/>
	<path class="st13" d="M416.3,225.1c-0.5-0.6-1-1.1-1.6-1.5c-7.1-5.9-5.5-13.6-4.5-21.1c1.2-2,3.2-2.5,5.2-1.7
		c13.5,5.5,27.9,9.1,40,17.9c2.7,2.9,5.9,5.4,8,8.7c3,4.5,1.6,9.3-0.9,13.5c-4.8,8.2-9.5-3.1-14.4-0.3
		C435.3,239.9,425.9,232.3,416.3,225.1z"/>
	<path class="st14" d="M416.3,225.1c12.2,1.8,21.2,10.3,31.7,15.5c2.3,8.6,14.1,4,16.7,12.1c-11.5-0.2-20.2-7.1-29.7-12.2
		c-13.3-7.3-16.2-6.3-20.5,7.4C412.2,240,414.8,232.6,416.3,225.1z"/>
	<path class="st15" d="M455.3,218.7c-14.3-5.6-28.7-11.2-43-16.9c-2.4-1-2.4-2.8-1.8-4.9c14.4,5.6,28.8,11.3,43.2,16.7
		c2.8,1,5,2.3,6.3,5.1C458.5,218.8,456.9,218.8,455.3,218.7z"/>
	<path class="st16" d="M62.6,138.2c12.2-11,25.7-4.8,38.8-2.9c-3,4.3-7.6,3.6-11.8,3.6c-4.8,0.1-9.5-0.1-13.3,3.4
		c-6.6,4.9-8.6,14.2-16.8,17.6c-2.2,2.6,0.1,9.2-6.8,7.6C46.6,154.6,59.4,148,62.6,138.2z"/>
	<path class="st17" d="M149.9,144.4c0.9,0.1,1.9,0.3,2.8,0.4c10.4,0.6,14.2,7.7,15.5,16.5c0.8,5.1,0.4,10.4-0.2,15.6
		c-0.2,1.2-0.5,2.4-1,3.6c-3.4,4.4-3.6,9.6-3.5,14.9c0.1,4,1.6,9.5-0.8,11.8c-10.1,9.7-5.5,16.2,3.3,22.7c0.9,0.7,1.2,2.1,1.7,3.2
		c2.3,7.7,5.3,15.1,9.7,24.1c2.2-12.1,0.3-22.6,1.5-32.8c0.2-1.2,0.5-2.3,0.9-3.4c6.4-13.1,16.7-24,22.2-37.6
		c5-9.5,9.9-19.2,20.7-23.6c10.7-1.5,15.8,4,17.1,14c0.5,3.6,0.9,7.2,1.5,10.8c0.7,13.9,2,27.7,6.7,41.5c4.4-3,3.7-8.4,7-11.3
		c1.2-1.4,2.7-2.4,4.2-3.5c4.3-2.4,8.3-2.4,11.8,1.6c3,12.4,7.8,23.7,19.6,30.3c2.1,2,4.3,3.7,7,4.9c19.3,8.8,39.7,12.5,60.8,13.2
		c5.5,0.2,11.4,0.6,15.7-4.2c9.2-1.2,16.3-5.8,22.5-12.7c2.2-2.4,5.3-7.6,9.4-1.5c1.6,11.7-5.9,21.6-6.6,32.9
		c-10.1,38.2-30.3,68.3-66.7,85.9c-1.7,0.8-3,2.6-4.4,3.9c-7.5,1.9-13.8,8-22.2,6.4c-7,2-13.6,2.1-20.1-4.7
		c-2.7,13.1-12.1,12-21,13.8c-32.1,6.4-62.7,2.9-92.5-10.2c-45.3-19-68.7-54.7-76.5-102.1c-0.5-2.8-1-5.6-1.5-8.4
		c0-10.6,0.1-21.2,0.1-31.7c2.6-17.4,10.9-32.8,17.4-48.8c2.6-1.9,4-4.4,4.5-7.6c4.9-12.3,14.8-19.7,25.5-26.4
		C144.4,144.9,147.3,145.5,149.9,144.4z"/>
	<path class="st18" d="M269.8,213.9c-3.2-2.2-6.5-2.2-9.8-0.1c-5.6-6.3,1.3-11,2-16.6c0.8-2.2,1.9-4.3,3-6.3
		c5.1-8.2,9.4-17,18.2-22.1c1.1-0.3,2.3-0.3,3.4-0.1c14.2-12.8,33-16.1,49.6-23.9c5.1-2.4,13.8-5.1,21.2,5.3
		c6.2,8.7,20.6,11.6,31.4,17c9.4,2.8,14.8,9.1,16.7,18.7c0.7,4.2,1.8,8.1,5.1,11.1c0.6,1.6,1.2,3.2,1.8,4.9
		c0.8,7.3,1.6,14.5,2.4,21.8c-5.7,17.2-7.1,35.7-15.3,52.2c-2.6-12.2,7.5-22.8,4.6-35.1c-2.5-3.7-3.7-7.8-3.4-12.4
		c2.4-4.9,3.7-9.7-0.1-14.6c-0.6-0.9-1.1-1.9-1.5-2.8c-1.7-7.3-7.2-10.4-13.7-12.4c-20.1-9.8-41.1-11.7-62.9-8.1
		c-10.8,1.7-21.6,3.6-32.4,5.1c-11.7,1.5-14.6,4.9-14.5,17.1C274,215,272.3,215.8,269.8,213.9z"/>
	<path class="st19" d="M172.4,370.9c7.4-2,13.2,2.9,19.6,4.8c25.9,7.3,52.1,5.9,78.3,2.3c5.5-0.8,11.7-1.5,9.5-10.2
		c-0.7-2.9,0.4-5.8,4-6.4c2.4-0.4,6.1-0.7,6.6,1.7c2.1,10.1,10.1,7.2,16.4,8.2c0.6,0.6,0.7,1.1,0.3,1.5c-0.3,0.3-0.6,0.4-0.9,0.4
		c-4.8,1.7-9.6,3.4-14.4,5c-7.4,1.9-14.8,3.3-22.3,4.7c-1.5,0.1-3,0.1-4.5,0.2c-21.1,5.1-42.3,3.8-63.4-0.1
		C191.8,378.8,180,380,172.4,370.9z"/>
	<path class="st10" d="M306.1,373c0.2-0.6,0.4-1.3,0.6-1.9c7.9,1.1,13.6-6.6,21.5-5.5C321.7,370.6,314.9,374.6,306.1,373z"/>
	<path class="st10" d="M269.4,382.8c7.1-3.1,14.4-5.6,22.3-4.7c-1.7,2.7-4.5,2.5-7.2,2.7C279.7,383.2,274.6,383.4,269.4,382.8z"/>
	<path class="st10" d="M201.5,382.9c21.1,1.5,42.3,2.7,63.4,0.1C243.7,390,222.6,389.3,201.5,382.9z"/>
	<path class="st20" d="M142.6,148.1c-8.8,8.1-17.5,16.1-26.3,24.2c-12.4-4.8-25.8-1.4-38.3-4.9c-6.4-1.8-14-0.9-18.5-7.4
		c4.2-6.8,8.5-13.5,12.7-20.3c9.7-5.8,20.3-3.9,30.1-1.5c10.1,2.5,20.3,3.7,30.5,4.6C137,143.1,140.9,143.5,142.6,148.1z"/>
	<path class="st21" d="M405.4,185.9c-5.5-6.2-11.1-12.5-16.7-18.7c2.7-1.4,5.3-2.8,8-4.3c5.3-6,11.6-8.4,19.4-5.8
		c8.2-0.3,15.5,2.9,16.3,11.2c0.9,9.4-9.5,9.4-15.1,12.8C414,183.2,408.6,182.1,405.4,185.9z"/>
	<path class="st4" d="M172.3,142.6c5.1,6,11.6,7.4,19.3,7.7c13.9,0.5,27.9,1.2,41.4,4.7c1,1.4,0.8,2.6-0.5,3.7
		c-14.6,3.9-29.2,1.9-43.8-0.3c-7.1-1-13.9-3.2-20.7-5.3c-5.7-2.5-9.6-7.5-15.1-10.3c3.2-2.5,6.5-4.9,9.7-7.4
		C169.1,133.3,171.9,136.3,172.3,142.6z"/>
	<path class="st4" d="M142.6,148.1c-18.4-5.6-37.7-6.8-56.4-10.5c-4.7-0.9-9.6-0.7-13.9,2.1c3.1-7.6,9.7-3.6,14.7-4.2
		c4.8-0.6,9.6-0.2,14.5-0.2c15,9.1,33.3,0.8,48.4,9.1C148.7,148.1,145.4,147.6,142.6,148.1z"/>
	<path class="st22" d="M152.9,142.7c6.5-0.9,10.6,3.3,14.8,7.2c6.2,2.3,8.7,6.7,6.5,13.1c-1.8,5.3-2.3,11-5.7,15.7
		c-1.1,1-2.3,1.2-3.6,0.5c0.2-13,2.8-26.8-12.2-34.4C152.6,144.1,152.7,143.4,152.9,142.7z"/>
	<path class="st4" d="M286.6,168.7c-0.7,0.5-1.3,1-2,1.5c-13,5.8-24.8-0.7-37-3.5c-2-0.5-3-2.5-1.9-4.8c8.1-0.9,16.2-1.7,24.2,0.5
		C276.4,162,282.2,163.4,286.6,168.7z"/>
	<path class="st23" d="M416.2,157.1c-6.5,1.9-12.9,3.9-19.4,5.8c-3.2-0.3-6.4-0.6-10.4-1c8.9-5.8,18.3-7.2,27.3-9.4
		C414.5,154,415.4,155.6,416.2,157.1z"/>
	<path class="st24" d="M269.9,162.4c-8.2,0.1-16.4,0.2-24.6,0.3c-5.9,3.7-9.9,1.6-12.6-4.2c0.1-1.2,0.2-2.3,0.2-3.5
		C245.3,157.5,257.6,159.9,269.9,162.4z"/>
	<path class="st25" d="M172.3,142.6c-3.3-2.3-5.2-6.5-9.7-7.3c3.2-3.3,7.2-3.6,10.5-0.9C175.8,136.7,175,140.1,172.3,142.6z"/>
	<path class="st26" d="M330.5,137.6c8,0,16.1,0,24.1,0c-8.1,1.9-16.4,5.3-24.2,0.1C330.4,137.7,330.5,137.6,330.5,137.6z"/>
	<path class="st27" d="M401.9,228.8c2,3.7,5.5,7.2,2,11.9c-8.1,8.3-12.9,22-28.7,17.8c-1,0.6-2,0.6-3.1,0.1c0.2-5.4-2.8-6.5-7.4-5.6
		c-2.9-0.8-5.1-2.5-7-4.8c-2.5-3.8-5.4-7.5-7.4-11.7c-2.2-4.7,0.6-8.2,2.9-11.7c9.3-13.5,21.7-14.3,35.6-8.9
		C394.5,218.9,400.5,221.5,401.9,228.8z"/>
	<path class="st28" d="M269.8,213.9c1.5-0.7,3-1.3,4.5-2c8-11.5,23.7-14.7,40-8.2c10.6,12.1,10.4,21.6-1.6,31.7
		c-6.7,5.6-13.7,11.2-23.3,10.5C276.5,239.2,268.1,229.7,269.8,213.9z"/>
	<path class="st29" d="M232.7,158.5c3.9,2.3,7.8,4.6,12.6,4.2c13.1,2.5,26.2,5,39.3,7.5c-5.6,7.2-11.1,14.4-16.7,21.6
		c-10.8,2.9-20.9,0.9-30.2-5.1c-0.5-2.7-1.6-5.5-1.4-8.2c0.9-11.8-4.8-16.9-16-17c-7.9,4.1-16.4,3.2-24.7,2
		c-4.7-0.6-9.7-2.1-8.7-8.9C202.2,155.9,217.5,157.2,232.7,158.5z"/>
	<path class="st30" d="M372.6,257c0.9,0.5,1.7,1,2.6,1.5c0.8,7.3-5,6.4-8.9,6.5c-25.2,0.7-49.6-2.9-72.4-14.5
		c-1-4.7,2.3-6.4,5.6-8.1c4.3-2.3,8.3-4.8,12.1-7.9c7-5.8,10.7-5.1,12.2,3.9c1.3,7.6,5.7,8.9,11.5,9.6c5.1,2.1,9.7,5.3,13.4-3
		c2.7-6.1,7.4-1.8,10.9,0.9c1.6,1.7,3.3,3.4,4.9,5.1C368.1,251.8,370,254.8,372.6,257z"/>
	<path class="st31" d="M186.9,154.6c2.6,6.4,8.3,4.9,13.4,5.4c6.7,0.6,13.6-1.7,20.1,1.5c-5.2,7.6-10.3,15.3-15.5,23
		c-1.7,0-3.4,0.6-5.1,0.6c-1.8,0-3.5-0.3-5.2-0.9c-7-2.2-14.2-0.6-21.3-1.3c-1.9-0.1-3.7-0.6-5.4-1.6c-1.3-0.8-1.5-1.9-0.6-3.2
		c0-5.5-0.6-10.9,3.1-15.8c3.7-4.9,0.3-8.8-2.7-12.5C174.1,151.5,180.5,153.1,186.9,154.6z"/>
	<path class="st32" d="M237.8,186.7c10.4-0.4,20.4,1.7,30.2,5.1c-0.9,1.7-1.7,3.5-2.6,5.2c-4,5.8-6.7,12.1-7.9,19
		c-3,3.2-2.5,7.6-3.7,11.4c-0.9,2.8,0.4,7.6-4.5,7.1c-3.2-0.4-5.7-3.6-6.1-6.9C241.7,213.9,236.2,200.7,237.8,186.7z"/>
	<path class="st33" d="M335.5,250.9c-9.4,0.6-15.8-1.8-14.9-13.3c0.3-3.5-2.5-7.3-6-3.4c-6,6.7-16,8.1-20.7,16.3
		c-1.5-1.5-3-3.1-4.6-4.6c7.1-4.4,14.7-8.3,21.2-13.5c10.2-8.1,10.5-14.3,3-25.9c1.6-1.4,3.4-1.7,5.4-1.1
		c12.9,11.6,26.4,16.2,43.3,7.1c8.5-4.6,18.7-4.7,27.1,2.7c0.7,1.2,0.7,2.4,0,3.6c-13.5-3.4-26.5-5.1-34.7,9.9
		c-5.1,2-10.4,1.6-15.6,1.1c-3.1,0-6.2,0-9,1.6c-1.6,7,2.1,10.2,8.2,11.1c2.7,0.4,5.6-0.4,6.5,3.3
		C344.5,252.7,340.6,252.8,335.5,250.9z"/>
	<path class="st34" d="M164.9,179.2c0.8-0.3,1.7-0.7,2.5-1c0.2,0.6,0.2,1.2,0,1.8c5.3,4.8,3.8,11.3,3.3,17.1
		c-1.3,13.3,0.6,26.3,1.9,40.1c2.8-5.5,0.7-13.5,9.5-13.5c0,14.3,0,28.7,0,43c-10.4-9.8-14.3-21.5-17.5-33.5
		c-6.9-17.8-4.8-35.6-0.1-53.4L164.9,179.2z"/>
	<path class="st35" d="M182.1,223.7c-8.4,6.7-3,16.9-6.7,26.5c-4.3-7.6-8.3-13.8-8.1-22c0.2-16.1,0.1-32.1,0-48.2
		c1.8,0.1,3.6,0.1,5.5,0.2c7.7,2,15.7-1,23.4,1.7c1.8,0.3,3.6,0.5,5.4,0.8c3.7,5.8-1.4,9.1-4,12.6c-2.9,3.9-4.9,0.1-6.2-2.1
		c-4.2-6.8-9.5-6.4-15.4-2.7c-5,7.8-2,16.4-2.1,24.6c0,2,2.2,1.6,3.8,1.2c4.9-1.1,6.6,0.6,4.7,5.4
		C182.5,222.5,182.5,223.1,182.1,223.7z"/>
	<path class="st34" d="M172,186.8c9.2-2.7,18.8-7.1,23.2,7.4c4.4-2.5,6.2-6.4,6.3-11.5c1.1,0.6,2.3,1.2,3.4,1.8
		c-4.8,14.1-14.4,25.3-22.6,37.3c-0.5-2.9-1.4-5.1-4.9-2.7c-0.4-0.4-0.9-0.8-1.3-1.1c-1.7-4.5,1.1-7.7,3.1-11.2
		c7.6-13.1,7.6-13.1-6.2-18.6C172.7,187.7,172.4,187.3,172,186.8z"/>
	<path class="st36" d="M164.5,179.8c-4.1,17.8-2,35.6,0.2,53.4c-2.3-4.5-5.1-7.7-10.9-7.5c-3.7,0.1-5.5-3-5.6-6.7
		c-0.1-3,0.8-6.6,4-6.5c10.3,0.3,7.1-7.2,7.9-12.6C161,193.1,156.8,185.1,164.5,179.8z"/>
	<path class="st37" d="M237.3,286.9c-0.5,3.7-2.8,5.6-5.8,4.8c-5.4-1.4-9-5.3-10.1-10.8c-0.5-2.4,0.1-5.5,3.7-4.5
		C230.6,278.1,234.9,281.5,237.3,286.9z"/>
	<path class="st38" d="M169.3,343.8c5.2,0.1,9.5,0.8,9.6,6.2c0.1,3.9-2.6,6.2-6.4,5.4c-4.4-0.9-9.7-2.6-10.3-7.3
		C161.4,342.6,167.2,344.9,169.3,343.8z"/>
	<path class="st39" d="M223.2,373.1c-3.7-0.3-8-2-8.3-7.3c-0.2-4.1,3.8-4.6,7.1-4.6c4.5-0.1,8.1,1.4,8.5,6.5
		C230.8,371.9,228,373.2,223.2,373.1z"/>
	<path class="st40" d="M123.5,197.8c-0.4,3.9,0.8,9.1-4.5,9.9c-4.5,0.7-7-4.4-5.8-7.2c1.6-4.1,1.4-11.1,6.8-11.5
		C124.4,188.8,123,194.5,123.5,197.8z"/>
	<path class="st41" d="M362.4,290.6c-0.9,5.2-4.5,8.9-9.7,10.8c-2.8,1-5-1.1-4.2-4c1.4-5.2,3.6-10.2,9.5-11.7
		C361.1,284.9,362.2,287.2,362.4,290.6z"/>
	<path class="st42" d="M133,318.9c-7.5-0.5-7-6.7-8.8-10.8c-1-2.3-0.6-5.4,3.1-4.7c5.3,1,8.5,4.8,9.8,9.9
		C138.1,317,135.1,317.9,133,318.9z"/>
	<path class="st43" d="M275.6,254.8c4,1.7,10,1,10.6,7.4c0.3,3.2-2.4,5.4-5.4,5.1c-5.2-0.6-8.6-4.1-10-8.9
		C270,255.4,272.6,254.4,275.6,254.8z"/>
	<path class="st44" d="M317.3,355.2c-3.9-0.4-5.6-2.2-5.5-4.9c0.2-6.1,5.6-7.6,9.8-9.4c2.9-1.2,4,2.1,4.1,4.5
		C326,351.9,319.9,352.3,317.3,355.2z"/>
	<path class="st45" d="M227.4,316.5c1.4-4.9,4.9-4.4,8-4.4c4,0.1,7.3,1.7,7.1,6.3c-0.1,3.8-2.7,5.9-6.5,5.3
		C231.7,322.9,229.7,319.2,227.4,316.5z"/>
	<path class="st45" d="M269,312c-2.5-0.2-6-0.2-5.2-3.4c1.1-4.3,4.5-7.6,9.2-8.3c3-0.5,6,1.2,5.4,4.6
		C277.6,309.9,273.6,311.8,269,312z"/>
	<path class="st36" d="M136.5,218.4c-3.8-0.7-5.5-3.2-5.5-6.9c0-3.6,1.2-7.1,5.4-6.3c3.7,0.7,6.3,3.8,5.9,8.1
		C142.1,216.6,139.8,218.2,136.5,218.4z"/>
	<path class="st46" d="M159.7,255.8c0,3.3-1.1,6.2-4.5,5.9c-4.5-0.4-6.7-3.9-7-8.2c-0.2-2.7,0.1-6.5,3.9-5.8
		C156,248.5,158.4,252.1,159.7,255.8z"/>
	<path class="st41" d="M360.9,320.7c-1.9,4.5-4.4,8.5-9.9,9.3c-2.8,0.4-5.3-0.6-4.6-3.6c1.1-4.5,4.5-7.5,8.9-8.9
		C357.9,316.6,360,317.8,360.9,320.7z"/>
	<path class="st47" d="M216.1,218.1c-0.3,3.3-0.8,6.9-4.9,6.9c-3.4-0.1-6.2-2.7-6.1-6.2c0.1-4,3.1-6.6,7-6.7
		C216,211.9,215.9,215.3,216.1,218.1z"/>
	<path class="st48" d="M265.7,290c-3-0.4-6.8-0.4-6.1-4.2c0.8-4.6,5-5.8,9.3-5.7c3,0.1,5.9,1,5,4.9
		C272.9,289.4,269.2,289.8,265.7,290z"/>
	<path class="st41" d="M252.6,257c0,2.9-0.5,5.5-3.6,5.4c-5-0.1-6.4-4.3-7.4-8.1c-0.7-2.6,0.9-5.2,3.6-5
		C249.8,249.6,251.6,253.2,252.6,257z"/>
	<path class="st49" d="M230.8,199c-0.1,3.6-0.1,6.9-4.1,6.8c-3.9-0.1-5.4-3.1-5.6-6.6c-0.1-3.2-0.4-7.1,4.5-6.6
		C229.6,193,230.4,196.4,230.8,199z"/>
	<path class="st50" d="M295.9,312c3,0,6.4,0.6,6.1,3.2c-0.6,5-5.8,6.2-9.6,7.9c-2.3,1.1-5-1.1-4.5-4
		C288.6,314.6,292,312.5,295.9,312z"/>
	<path class="st44" d="M119.7,230.2c4,1.5,5.1,5.1,5.7,8.7c0.5,3.1-1,6-4.6,5.7c-4.2-0.3-4.5-4-4.6-7.3
		C116.1,234.4,116.4,231.5,119.7,230.2z"/>
	<path class="st51" d="M202,262.2c-3.5-1.1-4.6-4.2-4.8-7.5c-0.2-3.1,1.3-6,5-5.3c3.9,0.8,4.2,4.5,4.1,7.8
		C206.2,259.9,205.6,262.2,202,262.2z"/>
	<path class="st52" d="M249.7,338.8c3.1,0.3,7.6-0.7,8.1,3.3c0.6,4.6-4,4-7,4c-3,0.1-7.6,0.9-8.1-3.1
		C242.2,338.5,246.8,339.4,249.7,338.8z"/>
	<path class="st53" d="M295.2,287.4c0.5-3.5,3-4.6,6-4.6c3.5,0,6.8,1,6.3,5.3c-0.4,3.3-3.4,4.2-6.4,4
		C298.2,292,295.7,290.9,295.2,287.4z"/>
	<path class="st38" d="M385.9,288.9c-1.5,3-2.1,7.3-6.7,7.2c-2.8-0.1-4.4-2.4-3.5-5.1c1.1-3.3,2-7.5,6.6-7.5
		C385.1,283.6,386.3,285.9,385.9,288.9z"/>
	<path class="st54" d="M203.6,294.9c3.5,0.4,6.4,1.1,6.5,4.7c0,3.6-2.8,4.7-5.8,4.7c-3.5,0.1-6.8-1-6.5-5.2
		C198,295.7,201.3,295.2,203.6,294.9z"/>
	<path class="st51" d="M230.3,249.1c-0.4,3.3-2.6,4.1-5.1,3.8c-3.5-0.3-6.3-1.9-5.5-6c0.5-2.6,1.4-6,5.2-4.7
		C228,243.2,230,245.8,230.3,249.1z"/>
	<path class="st55" d="M259.1,356.2c4.3,0.2,5.8,2.2,5.6,5.6c-0.2,2.5-1.1,5.1-4.2,4.8c-3.3-0.4-6.6-1.7-6.7-5.7
		C253.8,357.2,257,356.7,259.1,356.2z"/>
	<path class="st56" d="M298.2,339c-0.7,3.7-3.2,6.1-7,6.7c-2.5,0.4-5.4-0.6-4.9-3.5c0.5-3.7,3.7-6.2,7.1-7.3
		C295.9,334.2,297.7,336.1,298.2,339z"/>
	<path class="st57" d="M159.2,296.8c-0.1,3-1.8,4.6-4.5,4.8c-3.9,0.3-6.2-1.8-6.3-5.7c-0.1-2.6,1.3-5,4.1-5
		C156.2,290.9,158,293.7,159.2,296.8z"/>
	<path class="st58" d="M116.1,271.6c-0.2,3.4-1.2,5.4-3.5,4.7c-3.6-1.1-5.9-3.9-6-7.9c-0.1-2.5,0.7-5.2,4-3.9
		C114,265.8,115.9,268.9,116.1,271.6z"/>
	<path class="st38" d="M167.8,332.5c-2.9-2.5-7.4-3-7.1-7.7c0.2-2.4,2.5-3,4.6-2.8c4.2,0.3,6.8,2.4,6.4,7
		C171.5,331,169.9,332.3,167.8,332.5z"/>
	<path class="st59" d="M146.2,164c3.2,0.4,3.8,2.8,3.9,5.3c0,3.4-0.7,6.8-5,6.8c-2.8,0-4.3-2.3-4.2-4.9
		C141,167.7,143,165.2,146.2,164z"/>
	<path class="st60" d="M260.3,230.4c3.1,0.1,4.1,1.8,4.3,4c0.4,2.9,0.5,6.1-3,7c-2.3,0.6-3.4-1.7-3.7-3.8
		C257.4,234.5,258,232,260.3,230.4z"/>
	<path class="st61" d="M323.6,312c2.5,0.1,5.3,0.5,5.4,3.4c0.1,2.9-2.7,3.7-4.9,4.4c-3,0.9-4.6-0.8-4.9-3.5
		C318.7,313.2,320.9,312.2,323.6,312z"/>
	<path class="st62" d="M335.7,285.3c-0.2,3.1-0.1,6-3.4,5.7c-2.6-0.2-3.7-2.6-3.6-5.2c0.1-2.1,1.1-4,3.2-4.4
		C335.6,280.8,335,284,335.7,285.3z"/>
	<path class="st52" d="M205.1,327.1c-2,2.8-4.8,2.1-7.4,1.6c-1.8-0.3-2.8-1.6-2.1-3.4c1.3-3.1,3.9-3.8,6.8-2.7
		C204.3,323.3,205.7,324.6,205.1,327.1z"/>
	<path class="st61" d="M145,268.6c0.1,2.7-0.9,4.9-3.5,5.3c-2.4,0.4-3.3-1.6-3.3-3.8c0-2.5,0.6-5.1,3.3-5.4
		C143.6,264.5,144.7,266.5,145,268.6z"/>
	<path class="st60" d="M181.3,294.4c-1,2.4-2.9,2.8-4.8,2c-1.8-0.7-3.6-2-2.8-4.3c0.8-2.3,3-2.2,4.9-1.8
		C180.8,290.8,181.7,292.3,181.3,294.4z"/>
	<path class="st63" d="M257.5,216c-0.6-7.7,1.3-14.3,7.9-19c0.5,6.4-6.5,10.3-5.3,16.9C259.2,214.6,258.4,215.3,257.5,216z"/>
	<path class="st64" d="M389.3,216.4c-12.2-3.4-24.2-6.6-34.2,5.5c-2.6,3.2-6.6,1.7-10.1,0.3c-2.9-1.2-6.2-3.2-9-2.9
		c-10.1,1.2-15.8-2.8-17.8-12.7c-9.3-6.7-19.4-5.9-29.8-3.6c-3.9,0.9-9.3,5.4-11.7-0.1c-2.5-5.8,3.9-7.7,8-9.9
		c0.7-0.4,1.3-0.9,2-1.4c24.8-3.6,49.3-9.6,74.7-5.5c10.3,1.6,19.4,5,28,10.6c5.3,3.7,10.1,7.9,11.9,14.6l0.1,0.2
		c1.3,1.6,2,3.5,2.6,5.5c0.6,2.3,2,5-0.4,6.7c-2.3,1.6-4.7,0.1-6.7-1.4C394.4,220.4,391.7,218.6,389.3,216.4z"/>
	<path class="st65" d="M286.8,191.7c-1.1,4.7-7.6,4.6-8.8,10.6c13.7,0,28.8-10.7,40.3,4.3c-1.6,0-3.1-0.1-4.7-0.1
		c-14.3-7-26.8-1.3-39.3,5.4C268,204.2,273.7,194.9,286.8,191.7z"/>
	<path class="st66" d="M315.2,168c-1.7,3.9-4.4,6.5-9,6.4c-2.9-0.1-4.7-1.9-3.9-4.7c1.2-4.1,3.9-7.1,8.6-6.7
		C313.6,163.2,315.2,164.9,315.2,168z"/>
	<path class="st67" d="M389.3,216.4c4.2,1.9,8.4,3.8,13.4,6c-0.5-4.1-0.9-7.4-1.3-10.8c6.7,5.6,8.2,11.3,0.4,17.3
		c-4.2-3.3-8.4-6.7-12.6-10C389.3,218,389.4,217.2,389.3,216.4z"/>
	<path class="st56" d="M348.9,175.5c-3.2-1.3-5.4-3.3-4.9-6.5c0.4-2.4,2.1-4.8,4.7-4.9c4,0,3.9,3.4,3.8,6.2
		C352.5,173,351.5,175.1,348.9,175.5z"/>
	<path class="st68" d="M367.7,178.7c-3.5,0.4-4.6-1.1-4.9-3.2c-0.3-2.5,0.3-5,3.3-5.1c2.2,0,3.2,1.8,3.4,4
		C369.7,176.6,368.6,177.9,367.7,178.7z"/>
	<path class="st67" d="M401.4,211.4c-4-4.9-8-9.8-11.9-14.6C396.9,198.8,401.6,203.1,401.4,211.4z"/>
	<path class="st69" d="M335.5,250.9c5.2,0.2,8-2.1,7.4-7.7c-1.2-3.5,1.5-4.6,3.6-6.2c1.9-1.1,4-1.2,6.1-1c2.4,3.3,4.7,6.6,7.1,9.9
		c-3,0.6-7.8-4.8-8.8,1C348.5,261.2,342,255.3,335.5,250.9z"/>
	<path class="st70" d="M352.6,236c-1,1.9-2.8,2.3-4.8,2.4c-2.4-0.1-4.9,0.2-7.2-0.9c-4.1-3-6-6.5-2.6-11.2c5.8-1,11.2,0.7,16.6,2.4
		C353.3,230.9,350.1,232.7,352.6,236z"/>
	<path class="st71" d="M372.6,257c-4.3,0.2-6-3.2-8-6.1c2.2-0.7,4.8-0.9,6.6-2.2c2.3-1.5,3.5-6.9,7-2.5c3.6,4.4-1,5.9-4,7.7
		C373.3,254.5,373.1,256,372.6,257z"/>
	<path class="st72" d="M293.2,225c2.8,0.1,3.7,1.8,3.8,3.9c0.1,2.3,0.5,5.2-2.6,5.8c-2.9,0.5-4.2-1.6-4.5-4.3
		C289.6,227.7,291,225.9,293.2,225z"/>
	<path class="st34" d="M196.1,181.9c-7.8-0.6-15.8,1.7-23.4-1.7C180.6,179.8,188.6,178.1,196.1,181.9z"/>
	<path class="st73" d="M250.4,209.6c-2.9-5.6-4.2-9.2,0.1-12.1c0.9-0.6,3.5,0,4.2,0.8C258.1,203.2,252.7,204.8,250.4,209.6z"/>
	<path class="st74" d="M338,226.3c0,4.1,0.5,7.9,4.7,10c0.4,4.9-2.6,7.5-6.7,8.1c-3.4,0.5-5.3-2.6-6.9-5.5c-2.2-4-6.7-7.2-3.2-12.6
		C330,226.2,334,226.2,338,226.3z"/>
	<path class="st75" d="M325.9,226.2c-0.5,7.3,3.6,12.6,8.9,15.9c3.4,2.1,6-2.7,7.8-5.8c2.1-0.3,3.9,0.3,5.1,2.1
		c-1.6,1.6-3.3,3.2-4.9,4.8c-3,4-7.4,6.2-10.7,1.7C328.3,239.7,319.4,235.3,325.9,226.2z"/>
	<path class="st34" d="M177.5,219.1c-0.5,2.2,0.1,5.4-3,5.7c-2.9,0.3-4.3-2.4-4.2-4.8c0.3-11.1-2.6-22.3,1.8-33.2
		c0,0,0.5,0.4,0.5,0.4c5.6,6.7,3.4,14.7,3.5,22.3c0.1,3.1-2.2,6.4,0.9,9.2L177.5,219.1z"/>
	<path class="st76" d="M177,218.7c-4.2,2.1-4.8-0.4-4.8-3.7c0.1-9.3,0.2-18.5,0.3-27.8c2.4,0,4.9-0.3,7.2,0
		c12.6,1.7,13.6,4,6.8,14.9C183.2,207.5,178.5,212.2,177,218.7z"/>
</g>
</svg>
